<svg xmlns="http://www.w3.org/2000/svg" viewBox="0 0 1920 1080"><style>.st0{fill:#fff;stroke:#000;stroke-miterlimit:10}</style><g id="Layer_2"><path class="st0" d="M1882.5 1080.5l5-12s25-76 26-76 1-13 1-13l-1-9-74-345-21-101c-3-11-16-15-16-15l-32-8-37-7-24-161-17-114-10-78-101-9-32-1h-3l-5 1c-5 1-8 3-8 3s-3 2-6 5-3 10-3 10l-2 7-7 95-18 343-15 235-6 88-2 33-1 18-2 28v29l1 15 2 11 2 11 2 6 2 6 2 5h400z"/><g id="Layer_3"><path class="st0" d="M1919.5 1079.5h-25l-3-22 22-66 1-4v-8l-1-9-87-406 1-7 2-7 7-21s8-13 23-14h60v564z"/><g id="Layer_4"><path class="st0" d="M1365.5 116.5l63 4 38 3 32 4s22 7 19 15l-1 34-10 124-35 512-5 100s-3 94-49 158l-329-56s-18-40-19-93v-61s1-12 3-13l129-387 8-9 8-4 8-2h56l84-329z"/><g id="Layer_5"><path class="st0" d="M916.5 419.5s5-6 13-7h54l173-312 89 6s3 1 2 5l-139 312s-1 4 2 4 48 7 51 8c0 0 22 5 27 22l-2 49-117 348v35l-27 83s-6 19-14 31l-256-43-51-9s-39-117-31-164l226-368z"/><path class="st0" d="M910.5 90.5s6-5 11-6l77 2 40 3s6 3 1 7l-218 298s63 7 69 17c0 0 10 7 10 18v16l-211 342s-1 43 9 93c0 0-18 44-29 61l-287-49s-14-4-47-155l575-647z" id="Layer_6"/></g></g><path class="st0" d="M1919.5 488.5l-106-335s-1-4 2-3l100 7s2 0 2 3l2 8v320z"/></g><path class="st0" d="M874.5 79.5s26 2 28 19l-567 639 27 113s-19 32-20 34h-9l-86-15-180-31s-26-46-33-70l-28-82 238-205 142-122s10-8 29-6h32l317-283 110 9z" id="Layer_7"/><path class="st0" d="M136.5 335.5s12-13 29-10h36s4-2 6-4l373-265 58 3s7 1 0 7l-337 271s72 2 71 34l-366 315 47 125-16 21-37-5v-395l136-97z" id="Layer_8"/><path class="st0" d="M.5 432.5l129-92s8-21-64-28l24-19 11-8s34-36 31-39l322-197s4-6-4-5l-46-2-403 238v152z" id="Layer_9"/><path class="st0" d="M.5 174.5l270-139s4-7-10-5h-56s-4-5-33 18l-120 61-10 5-3 2-38 17v41z" id="Layer_10"/><path class="st0" d="M.5 133.5l.83-.41L171.5 48.5l16-11s-7-12-21-12l-97-9-69 31v86z" id="Layer_11"/></g></svg>