<?xml version="1.0" encoding="utf-8"?>
<!-- Generator: Adobe Illustrator 23.0.6, SVG Export Plug-In . SVG Version: 6.00 Build 0)  -->
<svg version="1.1" xmlns="http://www.w3.org/2000/svg" xmlns:xlink="http://www.w3.org/1999/xlink" x="0px" y="0px"
	 viewBox="0 0 1920 1080" style="enable-background:new 0 0 1920 1080;" xml:space="preserve">
<style type="text/css">
	.st0{fill:#FFFFFF;stroke:#000000;stroke-miterlimit:10;}
</style>
<g id="Layer_2">
	<path class="st0" d="M1882.5,1080.5l5-12c0,0,25-76,26-76s1-13,1-13l-1-9l-74-345l-21-101c-3-11-16-15-16-15l-32-8l-37-7l-24-161
		l-17-114l-10-78l-101-9l-32-1h-3c0,0,0,0-5,1s-8,3-8,3s-3,2-6,5s-3,10-3,10l-2,7l-7,95l-18,343l-15,235l-6,88l-2,33l-1,18l-2,28v18
		v11l1,15l2,11l2,11l2,6l2,6l2,5H1882.5z"/>
	<g id="Layer_3">
		<path class="st0" d="M1919.5,1079.5h-25l-3-22l22-66l1-4v-8l-1-9l-87-406l1-7l2-7l7-21c0,0,8-13,23-14h9h20h31V1079.5z"/>
		<g id="Layer_4">
			<path class="st0" d="M1365.5,116.5l63,4l38,3l32,4c0,0,22,7,19,15l-1,34l-10,124l-35,512l-5,100c0,0-3,94-49,158l-329-56
				c0,0-18-40-19-93v-61c0,0,1-12,3-13l129-387l8-9l8-4l8-2h12h6h8h6h5h10h9L1365.5,116.5z"/>
			<g id="Layer_5">
				<path class="st0" d="M916.5,419.5c0,0,5-6,13-7h54l173-312l89,6c0,0,3,1,2,5l-139,312c0,0-1,4,2,4s48,7,51,8c0,0,22,5,27,22
					l-2,49l-117,348v35l-27,83c0,0-6,19-14,31l-256-43l-51-9c0,0-39-117-31-164L916.5,419.5z"/>
				<g id="Layer_6">
					<path class="st0" d="M910.5,90.5c0,0,6-5,11-6l77,2l40,3c0,0,6,3,1,7l-218,298c0,0,63,7,69,17c0,0,10,7,10,18s0,16,0,16
						l-211,342c0,0-1,43,9,93c0,0-18,44-29,61l-287-49c0,0-14-4-47-155L910.5,90.5z"/>
				</g>
			</g>
		</g>
		<path class="st0" d="M1919.5,488.5l-106-335c0,0-1-4,2-3s0,0,0,0l100,7c0,0,2,0,2,3l2,8V488.5z"/>
	</g>
	<g id="Layer_7">
		<path class="st0" d="M874.5,79.5c0,0,26,2,28,19l-567,639l27,113c0,0-19,32-20,34h-9l-86-15l-180-31c0,0-26-46-33-70l-28-82
			l238-205l142-122c0,0,10-8,29-6h32l317-283L874.5,79.5z"/>
	</g>
	<g id="Layer_8">
		<path class="st0" d="M136.5,335.5c0,0,12-13,29-10h36c0,0,4-2,6-4l373-265l58,3c0,0,7,1,0,7l-337,271c0,0,72,2,71,34l-366,315
			l47,125l-16,21l-37-5v-395L136.5,335.5z"/>
	</g>
	<g id="Layer_9">
		<path class="st0" d="M0.5,432.5l129-92c0,0,8-21-64-28l24-19l11-8c0,0,34-36,31-39l322-197c0,0,4-6-4-5l-46-2l-403,238V432.5z"/>
	</g>
	<g id="Layer_10">
		<path class="st0" d="M0.5,174.5l270-139c0,0,4-7-10-5h-56c0,0-4-5-33,18l-120,61l-10,5l-3,2l-38,17V174.5z"/>
	</g>
	<g id="Layer_11">
		<path class="st0" d="M0.5,133.5l0.83-0.41L171.5,48.5l16-11c0,0-7-12-21-12l-97-9l-69,31V133.5z"/>
	</g>
</g>
</svg>
